<!--?xml version="1.0" standalone="no"?-->
              <svg id="sw-js-blob-svg" viewBox="0 0 100 100" xmlns="http://www.w3.org/2000/svg" version="1.1">
                    <defs> 
                        <linearGradient id="sw-gradient" x1="0" x2="1" y1="1" y2="0">
                            <stop id="stop1" stop-color="rgba(0, 0, 0, 1)" offset="0%"></stop>
                            <stop id="stop2" stop-color="rgba(0, 0, 0, 1)" offset="100%"></stop>
                        </linearGradient>
                    </defs>
                <path fill="url(#sw-gradient)" d="M21.5,-35.6C27.9,-33.6,33.2,-27.9,35,-21.4C36.8,-14.8,35.1,-7.4,34.3,-0.5C33.5,6.5,33.7,13,31.2,18.3C28.6,23.5,23.4,27.5,17.8,31.8C12.1,36.1,6.1,40.6,-0.3,41.1C-6.6,41.6,-13.3,38,-18.7,33.6C-24.1,29.2,-28.4,24,-33,18.3C-37.6,12.6,-42.5,6.3,-42.4,0.1C-42.3,-6.2,-37.2,-12.3,-33,-18.7C-28.7,-25.1,-25.4,-31.6,-20.1,-34.3C-14.7,-36.9,-7.4,-35.7,0.1,-35.9C7.5,-36,15.1,-37.6,21.5,-35.6Z" width="100%" height="100%" transform="translate(50 50)" stroke-width="0" style="transition: all 0.3s ease 0s;" stroke="url(#sw-gradient)"></path>
              </svg>