<!--?xml version="1.0" standalone="no"?-->
              <svg id="sw-js-blob-svg" viewBox="0 0 100 100" xmlns="http://www.w3.org/2000/svg" version="1.1">
                    <defs> 
                        <linearGradient id="sw-gradient" x1="0" x2="1" y1="1" y2="0">
                            <stop id="stop1" stop-color="rgba(0, 0, 0, 1)" offset="0%"></stop>
                            <stop id="stop2" stop-color="rgba(0, 0, 0, 1)" offset="100%"></stop>
                        </linearGradient>
                    </defs>
                <path fill="url(#sw-gradient)" d="M15.4,-25.6C22.6,-22.6,32.8,-23.7,36.6,-20.2C40.4,-16.6,37.8,-8.3,35,-1.6C32.3,5.1,29.4,10.2,26.1,14.6C22.8,19,19,22.8,14.6,26.4C10.2,30,5.1,33.5,-1.2,35.6C-7.6,37.7,-15.1,38.5,-20.1,35.2C-25.1,32,-27.6,24.6,-27.5,18.1C-27.5,11.6,-24.9,5.8,-24.3,0.3C-23.7,-5.1,-25.1,-10.2,-25,-16.4C-24.8,-22.6,-23.2,-30,-18.8,-34.6C-14.4,-39.2,-7.2,-41.1,-1.5,-38.4C4.1,-35.8,8.3,-28.6,15.4,-25.6Z" width="100%" height="100%" transform="translate(50 50)" stroke-width="0" style="transition: all 0.3s ease 0s;" stroke="url(#sw-gradient)"></path>
              </svg>