<!--?xml version="1.0" standalone="no"?-->
              <svg id="sw-js-blob-svg" viewBox="0 0 100 100" xmlns="http://www.w3.org/2000/svg" version="1.1">
                    <defs> 
                        <linearGradient id="sw-gradient" x1="0" x2="1" y1="1" y2="0">
                            <stop id="stop1" stop-color="rgba(0, 0, 0, 1)" offset="0%"></stop>
                            <stop id="stop2" stop-color="rgba(0, 0, 0, 1)" offset="100%"></stop>
                        </linearGradient>
                    </defs>
                <path fill="url(#sw-gradient)" d="M10.9,-23.5C12.5,-18,11,-11.8,12.2,-7.7C13.5,-3.7,17.3,-1.8,18.3,0.5C19.2,2.9,17.1,5.8,17.4,12.4C17.6,18.9,20.2,29.1,17.6,34.8C15.1,40.4,7.6,41.6,2.6,37C-2.3,32.4,-4.6,22.2,-6.7,16.3C-8.8,10.4,-10.8,8.9,-15.7,6.9C-20.6,4.9,-28.4,2.5,-31.2,-1.6C-34,-5.7,-31.7,-11.3,-28.2,-15.7C-24.7,-20.2,-20,-23.3,-15.1,-26.9C-10.2,-30.5,-5.1,-34.6,-0.2,-34.2C4.7,-33.8,9.3,-29,10.9,-23.5Z" width="100%" height="100%" transform="translate(50 50)" stroke-width="0" style="transition: all 0.3s ease 0s;" stroke="url(#sw-gradient)"></path>
              </svg>